# xmcd CD database file
#
# Track frame offsets:
#	150
#	19580
#	39010
#	58477
#	73717
#	102037
#	133177
#	147705
#	166530
#	212850
#	234165
#	261807
#	289497
#	305467
#
# Disc length: 4312 seconds
#
# Revision: 0
# Processed by: cddbd v1.5.1PL0 Copyright (c) Steve Scherf et al.
# Submitted via: CDex 1.60beta1
#
DISCID=cc10d60e
DTITLE=Van Morrison - A Night in San Francisco - Disc 1
DYEAR=1994
DGENRE=Blues
TTITLE0=did ye get healed?
TTITLE1=it's all in the game - make it real one more time
TTITLE2=I've been working
TTITLE3=I forgot that love existed
TTITLE4=vanlose stairway - trans-euro train - fool for you
TTITLE5=you make me feel so free
TTITLE6=beautiful vision
TTITLE7=see me through - soldier of fortune - thank you falettinme be mice elf agin
TTITLE8=ain't htat loving you baby?
TTITLE9=stormy monday - have you ever loved a woman? - no rollin' blues
TTITLE10=help me
TTITLE11=good morning little school girl
TTITLE12=tupelo honey
TTITLE13=moondance - my funny valentine
EXTD=YEAR: 1994
EXTT0=
EXTT1=
EXTT2=
EXTT3=
EXTT4=
EXTT5=
EXTT6=
EXTT7=
EXTT8=
EXTT9=
EXTT10=
EXTT11=
EXTT12=
EXTT13=
PLAYORDER=
